<svg version="1.1" id="CTV_Logo_Square" xmlns="http://www.w3.org/2000/svg" 
     viewBox="0 0 120 120" xml:space="preserve">
  
  <defs>
    <!-- Gradients -->
    <linearGradient id="orangeGrad" x1="0%" y1="0%" x2="100%" y2="100%">
      <stop offset="0%" stop-color="#FF7700"/>
      <stop offset="50%" stop-color="#FF5500"/>
      <stop offset="100%" stop-color="#FF9930"/>
    </linearGradient>
    
    <linearGradient id="silverGrad" x1="0%" y1="0%" x2="100%" y2="100%">
      <stop offset="0%" stop-color="#E8E8E8"/>
      <stop offset="50%" stop-color="#C0C0C0"/>
      <stop offset="100%" stop-color="#A8A8A8"/>
    </linearGradient>
    
    <radialGradient id="sparkGrad" cx="50%" cy="50%" r="50%">
      <stop offset="0%" stop-color="#FFFFFF"/>
      <stop offset="30%" stop-color="#FFFF00" stop-opacity="0.8"/>
      <stop offset="100%" stop-color="#FF7700" stop-opacity="0.3"/>
    </radialGradient>
  </defs>
  
  <!-- Background Circle -->
  <circle cx="60" cy="60" r="57" fill="#000000" stroke="#C0C0C0" stroke-width="2"/>
  
  <!-- Outer Ring -->
  <circle cx="60" cy="60" r="55" fill="none" stroke="url(#orangeGrad)" stroke-width="3"/>
  
  <!-- Welder Figure -->
  <g transform="translate(60,35)">
    <!-- Body -->
    <ellipse cx="0" cy="8" rx="6" ry="10" fill="#4A4A4A"/>
    <!-- Head/Helmet -->
    <circle cx="0" cy="0" r="5" fill="#2A2A2A"/>
    <rect x="-4" y="-1" width="8" height="2" rx="1" fill="#0A0A0A"/>
    <!-- Arms -->
    <ellipse cx="-5" cy="6" rx="3" ry="5" fill="#4A4A4A"/>
    <ellipse cx="5" cy="6" rx="3" ry="5" fill="#4A4A4A"/>
    <!-- Welding Tool -->
    <rect x="3" y="9" width="4" height="1" fill="url(#silverGrad)"/>
    <!-- Welding Spark -->
    <circle cx="7" cy="9.5" r="2" fill="url(#sparkGrad)">
      <animate attributeName="r" values="1.5;2.5;1.5" dur="1.5s" repeatCount="indefinite"/>
    </circle>
  </g>
  
  <!-- CTV Text -->
  <g transform="translate(60,70)">
    <!-- C -->
    <path d="M-20,-3 Q-23,-5 -18,-5 Q-13,-5 -13,-3 L-13,0 Q-13,3 -18,3 Q-23,3 -20,-3 Z" 
          fill="url(#orangeGrad)" stroke="#FF5500" stroke-width="0.5"/>
    
    <!-- T -->
    <rect x="-8" y="-5" width="9" height="2" fill="url(#orangeGrad)"/>
    <rect x="-3" y="-5" width="3" height="8" fill="url(#orangeGrad)"/>
    
    <!-- V -->
    <path d="M5,-5 L10,3 L13,3 L6,-8 L4,-8 L-3,3 L0,3 Z" 
          fill="url(#silverGrad)" stroke="#A8A8A8" stroke-width="0.5"/>
  </g>
  
  <!-- Metal Beam -->
  <rect x="30" y="85" width="60" height="6" rx="1" fill="url(#silverGrad)" stroke="#A8A8A8"/>
  
  <!-- Cross Symbol -->
  <g transform="translate(60,88)">
    <rect x="-5" y="-1" width="10" height="2" fill="url(#silverGrad)"/>
    <rect x="-1" y="-5" width="2" height="10" fill="url(#silverGrad)"/>
  </g>
  
  <!-- 3 Stars (compact) -->
  <g transform="translate(60,105)">
    <g transform="translate(-8,0)">
      <path d="M0,-2 L0.5,-0.5 L2,-0.5 L1,0.5 L1.5,2 L0,1 L-1.5,2 L-1,0.5 L-2,-0.5 L-0.5,-0.5 Z" fill="#FFD700"/>
    </g>
    <g transform="translate(0,0)">
      <path d="M0,-2 L0.5,-0.5 L2,-0.5 L1,0.5 L1.5,2 L0,1 L-1.5,2 L-1,0.5 L-2,-0.5 L-0.5,-0.5 Z" fill="#FFD700"/>
    </g>
    <g transform="translate(8,0)">
      <path d="M0,-2 L0.5,-0.5 L2,-0.5 L1,0.5 L1.5,2 L0,1 L-1.5,2 L-1,0.5 L-2,-0.5 L-0.5,-0.5 Z" fill="#FFD700"/>
    </g>
  </g>
  
</svg>
