<svg version="1.1" id="CTV_Logo_Optimized" xmlns="http://www.w3.org/2000/svg" 
     viewBox="0 0 240 240" xml:space="preserve">
  
  <defs>
    <!-- Gradients -->
    <linearGradient id="orangeGrad" x1="0%" y1="0%" x2="100%" y2="100%">
      <stop offset="0%" stop-color="#FF7700"/>
      <stop offset="50%" stop-color="#FF5500"/>
      <stop offset="100%" stop-color="#FF9930"/>
    </linearGradient>
    
    <linearGradient id="silverGrad" x1="0%" y1="0%" x2="100%" y2="100%">
      <stop offset="0%" stop-color="#E8E8E8"/>
      <stop offset="50%" stop-color="#C0C0C0"/>
      <stop offset="100%" stop-color="#A8A8A8"/>
    </linearGradient>
    
    <radialGradient id="sparkGrad" cx="50%" cy="50%" r="50%">
      <stop offset="0%" stop-color="#FFFFFF"/>
      <stop offset="30%" stop-color="#FFFF00" stop-opacity="0.8"/>
      <stop offset="100%" stop-color="#FF7700" stop-opacity="0.3"/>
    </radialGradient>
  </defs>
  
  <!-- Background Circle -->
  <circle cx="120" cy="120" r="115" fill="#000000" stroke="#C0C0C0" stroke-width="3"/>
  
  <!-- Outer Ring -->
  <circle cx="120" cy="120" r="110" fill="none" stroke="url(#orangeGrad)" stroke-width="4"/>
  
  <!-- Welder Figure -->
  <g transform="translate(120,70)">
    <!-- Body -->
    <ellipse cx="0" cy="15" rx="10" ry="18" fill="#4A4A4A"/>
    <!-- Head/Helmet -->
    <circle cx="0" cy="0" r="8" fill="#2A2A2A"/>
    <rect x="-6" y="-2" width="12" height="4" rx="1" fill="#0A0A0A"/>
    <!-- Arms -->
    <ellipse cx="-8" cy="10" rx="4" ry="8" fill="#4A4A4A"/>
    <ellipse cx="8" cy="10" rx="4" ry="8" fill="#4A4A4A"/>
    <!-- Welding Tool -->
    <rect x="5" y="15" width="6" height="2" fill="url(#silverGrad)"/>
    <!-- Welding Spark -->
    <circle cx="11" cy="16" r="3" fill="url(#sparkGrad)">
      <animate attributeName="r" values="2;4;2" dur="1.5s" repeatCount="indefinite"/>
    </circle>
  </g>
  
  <!-- CTV Text -->
  <g transform="translate(120,140)">
    <!-- C -->
    <path d="M-40,-5 Q-45,-10 -35,-10 Q-25,-10 -25,-5 L-25,0 Q-25,5 -35,5 Q-45,5 -40,-5 Z" 
          fill="url(#orangeGrad)" stroke="#FF5500" stroke-width="1"/>
    
    <!-- T -->
    <rect x="-15" y="-10" width="18" height="4" fill="url(#orangeGrad)"/>
    <rect x="-6" y="-10" width="6" height="15" fill="url(#orangeGrad)"/>
    
    <!-- V -->
    <path d="M10,-10 L20,5 L25,5 L12,-15 L8,-15 L-5,5 L0,5 Z" 
          fill="url(#silverGrad)" stroke="#A8A8A8" stroke-width="1"/>
  </g>
  
  <!-- Metal Beam -->
  <rect x="60" y="170" width="120" height="12" rx="2" fill="url(#silverGrad)" stroke="#A8A8A8"/>
  
  <!-- Cross Symbol -->
  <g transform="translate(120,176)">
    <rect x="-9" y="-1.5" width="18" height="3" fill="url(#silverGrad)"/>
    <rect x="-1.5" y="-9" width="3" height="18" fill="url(#silverGrad)"/>
  </g>
  
  <!-- 5 Stars -->
  <g transform="translate(120,210)">
    <g transform="translate(-24,0)">
      <path d="M0,-4 L1,-1 L4,-1 L2,1 L3,4 L0,2 L-3,4 L-2,1 L-4,-1 L-1,-1 Z" fill="#FFD700"/>
    </g>
    <g transform="translate(-12,0)">
      <path d="M0,-4 L1,-1 L4,-1 L2,1 L3,4 L0,2 L-3,4 L-2,1 L-4,-1 L-1,-1 Z" fill="#FFD700"/>
    </g>
    <g transform="translate(0,0)">
      <path d="M0,-4 L1,-1 L4,-1 L2,1 L3,4 L0,2 L-3,4 L-2,1 L-4,-1 L-1,-1 Z" fill="#FFD700"/>
    </g>
    <g transform="translate(12,0)">
      <path d="M0,-4 L1,-1 L4,-1 L2,1 L3,4 L0,2 L-3,4 L-2,1 L-4,-1 L-1,-1 Z" fill="#FFD700"/>
    </g>
    <g transform="translate(24,0)">
      <path d="M0,-4 L1,-1 L4,-1 L2,1 L3,4 L0,2 L-3,4 L-2,1 L-4,-1 L-1,-1 Z" fill="#FFD700"/>
    </g>
  </g>
  
</svg>
